<svg id="Camada_1" data-name="Camada 1" xmlns="http://www.w3.org/2000/svg" viewBox="0 0 200 150"><defs><style>.cls-1{fill:#e8e8e8;}.cls-2{fill:#fff;}</style></defs><title>backgroundImage</title><rect class="cls-1" width="200" height="150"/><path class="cls-2" d="M83.66,73.2a1.74,1.74,0,1,0-1.74-1.74A1.74,1.74,0,0,0,83.66,73.2Zm57.45,5.95c-.26-.19-.47-.22-.64.14-2.92,6.33-7.85,3.17-7.36,3.45,1.09-.5,4-2.8,3.53-6a3,3,0,0,0-3.71-2.5c-3.09.54-4.23,3.88-3.65,6.83a6.23,6.23,0,0,0,.46,1.34c-3.5,2.84-4.88-2.54-5-3.19,0,0,2.7-2.29,3.45-7.66.79-5.63-1-6.66-2.84-6.62C121.92,65,121,72.1,122.23,78a3.78,3.78,0,0,1-1.36.32c-.56-1.75-2.93-3.28-3.55-2.69-1.56,1.48.38,4.37,1.74,4.6-.82,5-5.93,3.79-5-2.52,1.66-3.09,2.93-7.69,2.71-10.46A2.33,2.33,0,0,0,114.34,65c-3.16.13-3.5,7.23-3.13,12.27a2.59,2.59,0,0,1-1.49,1c-.31-1.7-3-3.41-3.69-2.59-1.21,1.54.88,4.27,1.87,4.46-.82,5-5.93,3.79-5-2.52,1.66-3.09,2.93-7.69,2.71-10.46a2.33,2.33,0,0,0-2.45-2.23c-3.16.13-3.5,7.23-3.13,12.27a2.59,2.59,0,0,1-1.55,1C98.45,76,95.71,75,95,75.7c-1.18,1.25.27,3.83,1.61,4.46-.82,5-5.93,3.79-5-2.52,1.66-3.09,2.93-7.69,2.71-10.46a2.33,2.33,0,0,0-2.45-2.23c-3.16.13-3.41,7.59-3,12.63-1,4.46-4.53,10-4.08-1.13,0-.78.09-1.08-.3-1.37s-1-.12-1.32-.11-.55.28-.65.67a16.55,16.55,0,0,0-.3,3.32,6,6,0,0,1-.31,1.77c-.24.85-1.61,2.41-2.36,2.15-1-.36-.7-3.29-.5-5.31.16-1.59-.36-2.31-1.69-2.57a17.2,17.2,0,0,1-2.07-.39c-.77-.24-.94-1.7-2.58-1.21-.9.27-.32,2.16-.54,3.57-1.06,6.92-3.26,7.11-4.28,3.75C72.51,69.42,69.24,65,67.33,65S63,66.35,64,75.14a3.1,3.1,0,0,0-1.13-.21,5.26,5.26,0,0,0,0,10.5,4.58,4.58,0,0,0,3.83-2c.6.85,1.32,2,2.65,1.95,4-.15,5.1-8.26,5.24-8.71.42.07.82.19,1.21.25.65.1.7.35.68,1-.17,5.51.85,7.44,3.15,7.44,1.29,0,2.43-1.26,3.22-2.17a3.34,3.34,0,0,0,2.79,2.17c3.05.08,4.22-4.79,4.12-4.15s1,4.12,4.14,4.14c3.9,0,4.62-4.27,4.71-5,0-.14,0-.13,0,0v0a3.67,3.67,0,0,0,1.87-.89s1,5.9,4.67,5.83,4.54-3.94,4.63-4.7c0-.18,0-.16,0,0v0a4.09,4.09,0,0,0,1.86-1.07s.79,5.78,4.67,5.83c3.46,0,4.74-3.5,4.75-5a5.55,5.55,0,0,0,1.64-.37s1.27,5.06,4.81,5.32A5.62,5.62,0,0,0,131.13,84c1.67,1.35,7.23,3.08,10.74-2.87.5-.85-.57-1.86-.76-2ZM62.75,83.47A3,3,0,0,1,60,80.21c0-1.69,1-3.26,2.69-3.26a2.27,2.27,0,0,1,1.78.6c.11.42.41,1.4.56,1.85.2.6.44,1.1.67,1.65a3,3,0,0,1-2.93,2.41Zm4.13-5.87c-.07-.11-.06,0-.13-.15a16.28,16.28,0,0,1-1-4.88c-.08-2.43.33-5.27,1.52-5.27.81,0,1.67,5.76-.4,10.3Zm23.88-2.53c-.19-1.44-.2-7.86,1.34-7.68C93,67.74,91.56,73.79,90.76,75.07Zm11.25,0c-.19-1.44-.2-7.86,1.34-7.68C104.2,67.74,102.81,73.79,102,75.07Zm11.16.09c-.19-1.44-.2-7.86,1.34-7.68C115.36,67.83,114,73.88,113.17,75.16ZM125.49,67c1.41-.15,1.35,6-1.48,9.89-.36-1.4-.92-9.4,1.48-9.89Zm5.92,13.23c-.45-2.28.72-3.79,1.92-4a1.07,1.07,0,0,1,1.15.72c.2,1,0,2.39-2.73,4.2a3.71,3.71,0,0,1-.35-1Z"/></svg>