<svg id="Camada_1" data-name="Camada 1" xmlns="http://www.w3.org/2000/svg" viewBox="0 0 1200 900"><defs><style>.cls-1{fill:#e8e8e8;}.cls-2{fill:#fff;}</style></defs><title>backgroundImage1200px</title><rect class="cls-1" x="0.04" width="1200" height="900"/><path class="cls-2" d="M502,439.17a10.45,10.45,0,1,0-10.44-10.45A10.45,10.45,0,0,0,502,439.17Zm344.69,35.69c-1.59-1.12-2.82-1.3-3.83.87-17.54,38-47.1,19-44.17,20.7,6.56-3,23.8-16.83,21.2-35.93-1.58-11.67-11.6-16.85-22.23-15-18.56,3.24-25.39,23.25-21.91,41a37.38,37.38,0,0,0,2.78,8c-21,17.06-29.3-15.27-30.25-19.13,0-.21,16.19-13.74,20.71-46,4.73-33.79-6-39.94-17.07-39.75-20.4.36-25.91,43-18.5,78.49a22.65,22.65,0,0,1-8.14,1.94c-3.34-10.5-17.6-19.7-21.33-16.16-9.34,8.87,2.27,26.22,10.43,27.58-4.91,30.21-35.58,22.73-29.87-15.12,10-18.55,17.59-46.13,16.23-62.79-.48-5.9-4.84-13.79-14.7-13.4-19,.75-21,43.38-18.8,73.63-.11-.75-1.17,3.68-8.94,5.87-1.84-10.2-18.26-20.44-22.13-15.52-7.24,9.21,5.31,25.64,11.25,26.79-4.91,30.21-35.58,22.73-29.87-15.12,10-18.55,17.59-46.13,16.23-62.78-.48-5.9-4.84-13.8-14.7-13.4-19,.75-21,43.38-18.8,73.63-.11-.76-1.19,3.81-9.28,6-.27-13.23-16.76-19.3-20.72-15.08-7.06,7.53,1.62,23,9.64,26.79-4.91,30.21-35.58,22.73-29.87-15.12,10-18.55,17.59-46.13,16.23-62.78-.48-5.9-4.84-13.8-14.7-13.4-19,.75-20.48,45.52-18.26,75.77-6.24,26.76-27.19,60.17-24.47-6.76.27-4.7.56-6.48-1.78-8.24-1.75-1.37-5.74-.71-7.92-.65-2.65.11-3.31,1.66-3.9,4-1.36,6.05-1.61,11.92-1.8,19.92-.13,3.74-.43,5.49-1.87,10.6s-9.66,14.44-14.16,12.88c-6.24-2.15-4.19-19.76-3-31.87,1-9.57-2.15-13.86-10.14-15.42-4.68-1-7.52-.83-12.4-2.36-4.61-1.45-5.65-10.17-15.48-7.27-5.38,1.59-1.92,13-3.21,21.43-6.35,41.54-19.58,42.68-25.71,22.5,27.62-67.66,8-94.33-3.5-94.33-12,0-25.65,8.25-19.86,61-2.82-.82-3.68-1.26-6.77-1.26-17.44,0-29.33,14.1-29.33,31.49s11.88,31.5,29.33,31.5c10.3,0,17.53-4.68,23-11.93,3.57,5.12,7.92,12,15.88,11.7,23.71-.92,30.61-49.56,31.42-52.27,2.53.39,4.93,1.13,7.27,1.52,3.9.59,4.18,2.13,4.09,6.05-1,33.08,5.07,44.66,18.92,44.66,7.71,0,14.59-7.58,19.33-13,3.54,7.3,9.18,12.78,16.74,13,18.33.46,25.34-28.75,24.7-24.91-.5,3,5.95,24.75,24.81,24.82,23.37.1,27.71-25.6,28.23-29.91.06-.86.09-.77,0,0l0,.26A22,22,0,0,0,603,477.21s6,35.4,28,35c22.92-.42,27.24-23.65,27.8-28.18.07-1.07.12-.95,0,0v.13c8.81-3.21,11.13-6.42,11.13-6.42s4.73,34.7,28,35c20.75.27,28.45-21,28.49-29.88a33.28,33.28,0,0,0,9.82-2.2s7.6,30.34,28.83,31.9c10,.73,17.45-5.61,21.71-8.5,10,8.11,43.37,18.47,64.43-17.23,3-5.12-3.42-11.18-4.54-12ZM376.53,500.79c-10.18,0-16.7-9.41-16.7-19.56s6-19.55,16.17-19.55c4.58,0,7.13.5,10.69,3.61.65,2.55,2.48,8.43,3.37,11.1,1.2,3.57,2.62,6.61,4,9.92-2,8.49-8.76,14.49-17.58,14.49Zm24.8-35.21c-.42-.67-.33-.26-.81-.9a97.69,97.69,0,0,1-5.88-29.27c-.47-14.55,2-31.61,9.11-31.61,4.85,0,10,34.57-2.42,61.77Zm143.29-15.16c-1.15-8.64-1.21-47.13,8-46.07C557.75,406.42,549.41,442.75,544.61,450.42Zm67.49,0c-1.15-8.64-1.21-47.13,8-46.07C625.24,406.42,616.9,442.75,612.1,450.42Zm67,.54c-1.15-8.64-1.21-47.14,8-46.08C692.19,407,683.85,443.28,679.05,451ZM753,402.1c8.45-.88,8.1,36-8.86,59.32C741.92,453,738.57,405,753,402.1Zm35.52,79.4c-2.71-13.71,4.3-22.71,11.53-23.7,2.53-.4,6.19,1.23,6.92,4.29,1.2,5.77-.17,14.32-16.35,25.18a22.27,22.27,0,0,1-2.09-5.77Z"/></svg>