<svg id="Camada_1" data-name="Camada 1" xmlns="http://www.w3.org/2000/svg" viewBox="0 0 2500 615"><title>dribble_header</title><path d="M764,245.62a51.8,51.8,0,1,0-51.79-51.8A51.79,51.79,0,0,0,764,245.62Zm1709.11,177c-7.88-5.54-14-6.46-19,4.3-87,188.39-233.55,94.38-219,102.65,32.51-14.87,118-83.45,105.1-178.14-7.85-57.87-57.52-83.54-110.24-74.35-92,16-125.88,115.3-108.65,203.18,3,15.09,8.4,27.54,13.79,39.73-104,84.57-145.29-75.7-150-94.86-.19-1,80.3-68.11,102.68-228,23.46-167.54-30-198-84.64-197.09-101.13,1.76-128.46,213.06-91.75,389.17-3.08.8-17.39,8.73-40.38,9.62-16.55-52.07-87.25-97.7-105.75-80.12-46.31,44,11.23,130,51.72,136.74-24.32,149.8-176.43,112.7-148.11-75,49.53-92,87.2-228.75,80.48-311.32C1747,40,1725.42.79,1676.55,2.73c-94,3.72-104.23,215.08-93.21,365.09-.55-3.69-5.78,18.23-44.3,29.12-9.11-50.58-90.56-101.35-109.73-76.94-35.89,45.69,26.31,127.14,55.77,132.83-24.32,149.8-176.42,112.7-148.11-75,49.53-92,87.2-228.75,80.48-311.31-2.38-29.24-24-68.4-72.87-66.46-94,3.72-104.23,215.08-93.21,365.1-.55-3.75-5.91,18.89-46,29.61-1.34-65.62-83.08-95.72-102.72-74.78-35,37.32,8,113.91,47.8,132.83-24.32,149.8-176.42,112.7-148.11-75,49.53-92,87.2-228.75,80.48-311.31-2.38-29.24-24-68.4-72.87-66.46-94,3.72-101.57,225.71-90.55,375.72-31,132.67-134.81,298.35-121.32-33.54,1.33-23.28,2.79-32.12-8.82-40.84-8.7-6.77-28.48-3.51-39.29-3.25-13.14.53-16.43,8.21-19.34,19.84-6.77,30-8,59.1-8.95,98.79-.63,18.57-2.12,27.23-9.27,52.55s-47.88,71.58-70.19,63.84c-30.95-10.64-20.79-98-15-158,4.83-47.43-10.64-68.73-50.28-76.48-23.21-4.84-37.31-4.1-61.48-11.71-22.86-7.2-28-50.44-76.78-36-26.66,7.89-9.52,64.38-15.93,106.26-31.51,206-97.06,211.64-127.48,111.58C432.25,133.3,334.89,1,277.91,1c-59.35,0-127.2,40.88-98.47,302.46-14-4.08-18.26-6.27-33.56-6.27C59.4,297.24.48,367.15.48,453.4S59.4,609.56,145.89,609.56c51.05,0,86.9-23.22,114-59.14,17.71,25.37,39.28,59.53,78.72,58,117.57-4.58,151.76-245.74,155.8-259.19,12.57,1.94,24.46,5.6,36.07,7.54,19.34,2.9,20.74,10.56,20.3,30-5.13,164,25.14,221.45,93.8,221.45,38.25,0,72.35-37.58,95.83-64.46,17.54,36.21,45.5,63.35,83,64.45,90.87,2.26,125.66-142.57,122.49-123.51-2.49,15,29.48,122.7,123,123.09,115.88.49,137.42-126.94,140-148.29.32-4.25.46-3.81,0,0l-.09,1.29c36.79-6.84,55.77-26.57,55.77-26.57s29.54,175.54,139,173.57c113.63-2.06,135.06-117.25,137.87-139.71.37-5.33.59-4.71,0,0q0,.33,0,.66c43.7-15.9,55.19-31.85,55.19-31.85s23.48,172.05,139,173.56c102.91,1.35,141-104,141.27-148.15,17.36.19,49.46-10.3,48.71-10.89,0,0,37.7,150.43,143,158.16,49.42,3.63,86.5-27.81,107.63-42.15,49.67,40.22,215.06,91.6,319.49-85.46,14.74-25.41-17-55.43-22.52-59.35ZM141.72,551.16c-50.46,0-82.82-46.66-82.82-97s29.7-97,80.16-97c22.71,0,35.34,2.5,53,17.88,3.21,12.64,12.3,41.79,16.72,55,5.93,17.71,13,32.79,20.08,49.2-10.15,42.09-43.44,71.82-87.16,71.82Zm123-174.57c-2.1-3.34-1.66-1.29-4-4.45C251.42,347,233.6,290.82,231.53,227c-2.33-72.16,9.69-156.74,45.15-156.74,24,0,49.56,171.42-12,306.3ZM975.15,301.4c-5.69-42.82-6-233.71,39.84-228.46C1040.29,83.2,998.95,263.33,975.15,301.4Zm334.63,0c-5.69-42.82-6-233.71,39.84-228.46C1374.93,83.2,1333.58,263.33,1309.79,301.4Zm332,2.66c-5.7-42.83-6-233.72,39.83-228.46C1706.9,85.85,1665.55,266,1641.76,304.06Zm366.5-242.29c41.9-4.34,40.17,178.62-43.93,294.14-10.85-41.75-27.47-279.8,43.93-294.14Zm176.1,393.71c-13.46-68,21.32-112.62,57.16-117.52,12.53-2,30.69,6.12,34.31,21.29,6,28.6-.86,71-81.09,124.84a110.44,110.44,0,0,1-10.37-28.61Z"/></svg>