<?xml version="1.0" encoding="utf-8"?>
<!-- Generator: Adobe Illustrator 21.1.0, SVG Export Plug-In . SVG Version: 6.00 Build 0)  -->
<svg version="1.1" id="Camada_1" xmlns="http://www.w3.org/2000/svg" xmlns:xlink="http://www.w3.org/1999/xlink" x="0px" y="0px"
	 viewBox="0 0 2500 615" style="enable-background:new 0 0 2500 615;" xml:space="preserve">
<style type="text/css">
	.st0{fill:#FFFFFF;}
</style>
<path class="st0" d="M764,245.6c28.6,0,51.8-23.2,51.8-51.8c0-28.6-23.2-51.8-51.8-51.8c-28.6,0-51.8,23.2-51.8,51.8
	C712.2,222.4,735.4,245.6,764,245.6z M2473.1,422.6c-7.9-5.5-14-6.5-19,4.3c-87,188.4-233.6,94.4-219,102.7
	c32.5-14.9,118-83.4,105.1-178.1c-7.8-57.9-57.5-83.5-110.2-74.3c-92,16-125.9,115.3-108.6,203.2c3,15.1,8.4,27.5,13.8,39.7
	c-104,84.6-145.3-75.7-150-94.9c-0.2-1,80.3-68.1,102.7-228c23.5-167.5-30-198-84.6-197.1c-101.1,1.8-128.5,213.1-91.7,389.2
	c-3.1,0.8-17.4,8.7-40.4,9.6c-16.5-52.1-87.2-97.7-105.8-80.1c-46.3,44,11.2,130,51.7,136.7c-24.3,149.8-176.4,112.7-148.1-75
	c49.5-92,87.2-228.8,80.5-311.3c-2.4-29.2-24-68.4-72.9-66.5c-94,3.7-104.2,215.1-93.2,365.1c-0.5-3.7-5.8,18.2-44.3,29.1
	c-9.1-50.6-90.6-101.4-109.7-76.9c-35.9,45.7,26.3,127.1,55.8,132.8c-24.3,149.8-176.4,112.7-148.1-75
	c49.5-92,87.2-228.7,80.5-311.3c-2.4-29.2-24-68.4-72.9-66.5c-94,3.7-104.2,215.1-93.2,365.1c-0.6-3.8-5.9,18.9-46,29.6
	c-1.3-65.6-83.1-95.7-102.7-74.8c-35,37.3,8,113.9,47.8,132.8c-24.3,149.8-176.4,112.7-148.1-75c49.5-92,87.2-228.7,80.5-311.3
	c-2.4-29.2-24-68.4-72.9-66.5c-94,3.7-101.6,225.7-90.6,375.7c-31,132.7-134.8,298.3-121.3-33.5c1.3-23.3,2.8-32.1-8.8-40.8
	c-8.7-6.8-28.5-3.5-39.3-3.2c-13.1,0.5-16.4,8.2-19.3,19.8c-6.8,30-8,59.1-8.9,98.8c-0.6,18.6-2.1,27.2-9.3,52.5
	c-7.1,25.3-47.9,71.6-70.2,63.8c-30.9-10.6-20.8-98-15-158c4.8-47.4-10.6-68.7-50.3-76.5c-23.2-4.8-37.3-4.1-61.5-11.7
	c-22.9-7.2-28-50.4-76.8-36c-26.7,7.9-9.5,64.4-15.9,106.3c-31.5,206-97.1,211.6-127.5,111.6C432.2,133.3,334.9,1,277.9,1
	c-59.4,0-127.2,40.9-98.5,302.5c-14-4.1-18.3-6.3-33.6-6.3c-86.5,0-145.4,69.9-145.4,156.2s58.9,156.2,145.4,156.2
	c51.1,0,86.9-23.2,114-59.1c17.7,25.4,39.3,59.5,78.7,58c117.6-4.6,151.8-245.7,155.8-259.2c12.6,1.9,24.5,5.6,36.1,7.5
	c19.3,2.9,20.7,10.6,20.3,30c-5.1,164,25.1,221.4,93.8,221.4c38.3,0,72.3-37.6,95.8-64.5c17.5,36.2,45.5,63.3,83,64.5
	c90.9,2.3,125.7-142.6,122.5-123.5c-2.5,15,29.5,122.7,123,123.1c115.9,0.5,137.4-126.9,140-148.3c0.3-4.2,0.5-3.8,0,0l-0.1,1.3
	c36.8-6.8,55.8-26.6,55.8-26.6s29.5,175.5,139,173.6c113.6-2.1,135.1-117.3,137.9-139.7c0.4-5.3,0.6-4.7,0,0c0,0.2,0,0.4,0,0.7
	c43.7-15.9,55.2-31.9,55.2-31.9s23.5,172.1,139,173.6c102.9,1.3,141-104,141.3-148.1c17.4,0.2,49.5-10.3,48.7-10.9
	c0,0,37.7,150.4,143,158.2c49.4,3.6,86.5-27.8,107.6-42.2c49.7,40.2,215.1,91.6,319.5-85.5C2510.4,456.5,2478.7,426.5,2473.1,422.6
	L2473.1,422.6z M141.7,551.2c-50.5,0-82.8-46.7-82.8-97c0-50.3,29.7-97,80.2-97c22.7,0,35.3,2.5,53,17.9c3.2,12.6,12.3,41.8,16.7,55
	c5.9,17.7,13,32.8,20.1,49.2C218.7,521.4,185.4,551.2,141.7,551.2L141.7,551.2z M264.7,376.6c-2.1-3.3-1.7-1.3-4-4.4
	c-9.2-25.2-27.1-81.3-29.1-145.1c-2.3-72.2,9.7-156.7,45.1-156.7C300.7,70.3,326.2,241.7,264.7,376.6L264.7,376.6z M975.2,301.4
	c-5.7-42.8-6-233.7,39.8-228.5C1040.3,83.2,998.9,263.3,975.2,301.4z M1309.8,301.4c-5.7-42.8-6-233.7,39.8-228.5
	C1374.9,83.2,1333.6,263.3,1309.8,301.4z M1641.8,304.1c-5.7-42.8-6-233.7,39.8-228.5C1706.9,85.9,1665.6,266,1641.8,304.1z
	 M2008.3,61.8c41.9-4.3,40.2,178.6-43.9,294.1C1953.5,314.2,1936.9,76.1,2008.3,61.8L2008.3,61.8z M2184.4,455.5
	c-13.5-68,21.3-112.6,57.2-117.5c12.5-2,30.7,6.1,34.3,21.3c6,28.6-0.9,71-81.1,124.8C2194.9,484.6,2187.4,470.6,2184.4,455.5
	L2184.4,455.5z"/>
</svg>
