<svg id="Camada_1" data-name="Camada 1" xmlns="http://www.w3.org/2000/svg" viewBox="0 0 634.83 153.64"><defs><style>.cls-1{fill:#c6396e;}.cls-2{fill:#cb3a70;}.cls-3{fill:#f05f95;}.cls-4{fill:#ca346c;}.cls-5{fill:#ed5790;}.cls-6{fill:#f491b6;}.cls-7{fill:#f570a2;}.cls-8{fill:#f97aa9;}.cls-9{fill:#f89cbe;}.cls-10{fill:#cc3d73;}.cls-11{fill:#f597ba;}.cls-12{fill:#fba1c2;}</style></defs><title>dribble_color</title><path class="cls-1" d="M76.5,153.64C34.36,153.54,0,119,0,76.76S34.81-.16,77.17,0a76.82,76.82,0,0,1-.68,153.64ZM98,15.46a60.42,60.42,0,0,0-34.22-2.64,2,2,0,0,0-2.07.92,22.6,22.6,0,0,0-12.08,4.1c-20.4,8.69-31.92,24.51-36.73,45.72-2,3.54-.76,7.42-1.13,11.13l-.08,2.09c-.15,11.64,2,22.64,9,32.29.49,4.22,3.91,6.67,6.06,9.87.9,1.34,2,.23,3-.3.61,4.35,3.3,6.84,7.29,8.17a1.85,1.85,0,0,0,.63,2.07c10.33,8,21.87,12.82,35.12,12.89,10.18,1.11,19.95-.22,29.1-5,4.92,0,7.9-3.33,11.08-6.34,1.52.42,2.2-.54,2.77-1.68,4.18-1.09,6.37-4.7,9-7.54,8.48-9.2,14.53-19.72,16.08-32.41l0-2c2-3.5,3-7.11,1-11,.43-14.3-3.73-27-12.94-38.06a2.57,2.57,0,0,0-2.08-2c-2.24-2.46-4.15-5.25-7.07-7C114.37,21.16,106.44,17.88,98,15.46Z"/><path class="cls-2" d="M119.69,28.71c2.92,1.77,4.83,4.56,7.07,7-6.58,8.87-15.48,14.84-24.83,20.39-3.45,2-9.56,2.12-10,5.94s3,7.83,4.81,11.78c-.21.45-.69,1-.57,1.33,1.48,4.54-.15,7.16-4.74,8.29-2,.49-2.88,2-2.66,4.14C78,90.52,68.53,96,59.64,102.49A91.72,91.72,0,0,0,37,126.81c-4-1.33-6.68-3.83-7.29-8.17,1.93-4.92,5.67-8.53,9-12.37a129.15,129.15,0,0,1,27-22.69c3.94-.79,7.17-3.23,10.84-4.65C84.11,76,84,76.08,80.42,68.86c-1.41-2.87-3-3.47-5.8-2.29a11.52,11.52,0,0,1-5.75,1.19l-1,.61c-5.23,1-10.36,2.51-15.74,2.58-1.45-.81-1.32-2-.22-2.76,3-2.19,3-5.27,2.86-8.48,3.38-.75,6.76-1.44,10.13-2.25,8.29-2,8.29-2,4.14-9.28a7.57,7.57,0,0,1-.47-1.4c3,.13,6.13-.12,8.55-1.8,1.86-1.29-.22-3.69.19-5.56.07-.3.8-.44,1.22-.66l5.47,9c1,2.59,2.38,3.54,5.34,2.33A79.33,79.33,0,0,0,115.75,32.7ZM60.76,64.66c.64,0,1.42,0,1.42-.9s-.76-.92-1.4-.92-1.42,0-1.42.9S60.12,64.61,60.76,64.66Z"/><path class="cls-3" d="M72.77,141.77c-13.26-.07-24.79-4.85-35.12-12.89,7.45-9.51,15-18.91,25.18-25.75C71.11,97.58,79.29,92,89.52,90.63l7.16,22.09c-2.1.07-3.12,1.75-4.38,3-6.09,6.07-12.14,12.17-17.86,18.61C72.22,136.84,71.64,138.9,72.77,141.77Z"/><path class="cls-4" d="M96.68,112.72,89.52,90.63c.07-1.09.39-2.24-.75-3-.22-2.09.65-3.65,2.66-4.14,4.58-1.12,6.22-3.74,4.74-8.29-.11-.34.37-.88.57-1.33l20-1.09,25,3c2,3.88,1,7.49-1,11C128.91,83.53,116.87,83,104.7,84c-1.86-.15-3.52.1-3,2.56a62.36,62.36,0,0,0,2.06,7.53A187.15,187.15,0,0,1,113,130.39c-3.18,3-6.16,6.37-11.08,6.35C101.25,128.49,98.66,120.67,96.68,112.72Z"/><path class="cls-5" d="M140.79,88.76c-1.54,12.69-7.6,23.21-16.08,32.41-2.62,2.84-4.82,6.45-9,7.54-3.34-13.91-6.53-27.86-11.58-41.29a1.38,1.38,0,0,1,.62-1.7C116.87,85.53,129,85.49,140.79,88.76Z"/><path class="cls-6" d="M116.76,72.76l-20,1.09C95,69.9,91.52,65.77,91.94,62.07s6.54-3.9,10-5.94c9.35-5.55,18.25-11.52,24.83-20.39a2.56,2.56,0,0,1,2.08,2c-3,1.47-3.45,3.46-1.92,6.49,2.62,5.18,2.31,10.39,0,15.81S119.85,68.29,116.76,72.76Z"/><path class="cls-7" d="M65.74,83.58a129.19,129.19,0,0,0-27,22.69c-3.37,3.84-7.12,7.45-9,12.37-1,.52-2.11,1.63-3,.29-2.15-3.2-5.57-5.65-6.06-9.88.47-2.73,2.3-4.66,4-6.68,7.06-8.54,15.39-16,21.14-25.64C52,80.14,59.31,80.62,65.74,83.58Z"/><path class="cls-8" d="M45.76,76.73C40,86.35,31.68,93.84,24.62,102.38c-1.67,2-3.49,3.95-4,6.68-7-9.64-9.14-20.64-9-32.28,7.6-.35,15.19.14,22.83-.75C38,75.62,42.28,73.2,45.76,76.73Z"/><path class="cls-9" d="M84,47.71l-5.47-9c-5.66-8.31-10.5-17.17-16.83-25a2,2,0,0,1,2.07-.92c2.92,5.58,6.67,9.26,13.85,8,4.65-.8,9.49-.16,14.18.82l14,4.1c-.26.58-.37,1.37-.81,1.71-6.57,5.14-13.17,10.22-16.79,18.13A3.84,3.84,0,0,1,84,47.71Z"/><path class="cls-5" d="M96.68,112.72c2,7.95,4.57,15.77,5.2,24-9.16,4.82-18.92,6.14-29.1,5-1.13-2.86-.55-4.93,1.67-7.43,5.72-6.44,11.77-12.54,17.86-18.61C93.56,114.47,94.58,112.79,96.68,112.72Z"/><path class="cls-8" d="M12.88,63.55c4.81-21.21,16.33-37,36.73-45.72L53,24.43c-3.89,1.84-8,3.32-11.63,5.58-11.52,7.18-17.56,18.1-11.57,32.52Z"/><path class="cls-10" d="M12.88,63.55l17-1,24.92-2.82c.18,3.21.17,6.29-2.86,8.48-1.1.79-1.24,1.95.21,2.76-13.28,3.19-26.78,3.95-40.37,3.73C12.12,71,10.87,67.1,12.88,63.55Z"/><path class="cls-11" d="M11.75,74.68c13.59.22,27.09-.54,40.37-3.73,5.38-.07,10.52-1.6,15.74-2.57l1-.61a11.52,11.52,0,0,0,5.75-1.19c2.83-1.18,4.39-.58,5.8,2.29C84,76.08,84.11,76,76.58,78.93c-3.67,1.41-6.9,3.86-10.84,4.65-6.43-3-13.7-3.44-20-6.84C42.28,73.2,38,75.62,34.5,76c-7.64.89-15.23.4-22.83.75Q11.71,75.73,11.75,74.68Z"/><path class="cls-3" d="M116.76,72.76c3.09-4.47,7.91-7.46,10.16-12.74s2.62-10.63,0-15.81c-1.53-3-1.05-5,1.92-6.49,9.21,11,13.36,23.76,12.94,38.06Z"/><path class="cls-10" d="M53,24.43l-3.43-6.6a22.6,22.6,0,0,1,12.08-4.1c6.33,7.86,11.17,16.72,16.83,25-.43.22-1.16.36-1.22.66-.42,1.87,1.66,4.27-.19,5.56-2.42,1.68-5.54,1.94-8.55,1.8-.86-1.19-1.75-2.37-2.59-3.59C61.68,36.93,58.49,29.9,53,24.43Z"/><path class="cls-8" d="M91.79,21.67c-4.69-1-9.53-1.62-14.18-.82-7.18,1.23-10.92-2.45-13.85-8A60.39,60.39,0,0,1,98,15.46C96.15,17.76,91.53,17.28,91.79,21.67Z"/><path class="cls-7" d="M91.79,21.67c-.26-4.39,4.36-3.9,6.19-6.21,8.46,2.43,16.39,5.71,21.72,13.26l-3.94,4c-1.76-4.58-6.49-4.87-10-6.93Z"/><path class="cls-8" d="M88.78,87.6c1.14.79.81,1.94.75,3C79.29,92,71.11,97.58,62.83,103.12,52.61,110,45.1,119.37,37.65,128.88a1.84,1.84,0,0,1-.63-2.07,91.77,91.77,0,0,1,22.62-24.31C68.53,96,78,90.52,88.78,87.6Z"/><path class="cls-6" d="M104.76,85.72a1.38,1.38,0,0,0-.62,1.7c5.05,13.43,8.25,27.38,11.58,41.29-.57,1.14-1.25,2.1-2.77,1.68a187,187,0,0,0-9.19-36.31,62.36,62.36,0,0,1-2.06-7.53c-.53-2.46,1.13-2.71,3-2.56Z"/><path class="cls-7" d="M104.76,85.72,104.7,84c12.17-1,24.21-.45,36,2.79q0,1,0,2C129,85.49,116.87,85.53,104.76,85.72Z"/><path d="M553.89,112.57c12.3-2,13.06-2.9,13.13-14.83.09-15.59,9.76-29.24,22.7-32.47,7-1.74,13-.3,17.88,4.83s5.66,11.65,3.31,18.24c-3.94,11.09-12,18-23,21.79-3.07-2.58-6-5.32-9.25-7.68-2-1.45-6.47-.95-6.32-.17,1.63,8.18-7.73,8.25-10.18,14.47,3.11.11,7.26-1.44,7.14,3.46-17.11,10.18-28,8-37.73-8.91-3.39-5.89-7.77-3.64-12-4.38-4.81-.85-4.07,3.17-4.95,5.6-2.82,7.8-6.34,15-15.7,16.25-9.78,1.28-16.2-4.24-21.44-11.62-1-1.44-1.69-3.15-2.78-4.54-2.11-2.69-2.84-9.6-4.64-8.32-4.8,3.41-14.24.18-14.75,10.51-.25,5.07-4,9.82-9.5,11.94.46-4.36,0-8.42-3.77-11.38,4.51-7.12,6.88-13.83-.58-21-3-2.92-4.28-7.68-5-12.15-.46-2.71-1.09-5.67,1.56-7.27,2.8-1.69,5.66-.41,8.29,1.35,5.59,3.74,6.65,10.24,9.26,15.63,2.86,5.91,4.45,6.28,7.49.39,1.88-3.66,4.41-7,6.65-10.46,1.35-.47,3.27-.55,3.93-1.5,1.74-2.51-.33-8.12,3.68-8.05,4.55.08,1.19,6.22,3.82,8.67.39.37.47,1.07.69,1.62-4.46,11.57-.38,22.25,4.34,32.41,1.88,4,6.73,5.46,11.33,1.86,7.25-5.67,8.24-13.21,3.09-21.33a65.61,65.61,0,0,1-5.75-12c-1.14-3-2-6.71,1.72-8.7,3.35-1.78,6.33.07,8.83,2.35A29.09,29.09,0,0,1,514,91.49c1,3.63,2.43,5.93,6.71,5,5.18-1.1,3.27-4.49,2.76-7.64-.47-2.9-.54-5.87-.79-8.81,1.94-.25,3.57-1.21,3.32-3.26-.91-7.62,3.53-6.79,8.36-5.53l1.44,10.44c4.86-3.46,5.06-8.76,7.91-12.42,5-1,9.72-1.33,10.92,5.4-.77,5.07-3.06,10.09-6.74,12.84-8.93,6.65-6.63,13.37-1.92,20.76-4.22,4.09-6,1.26-7.38-2.62-1.08-3.09-2.32-6.06-5-8.13-1.74-1.34-3.4-1-4.52.69s-.16,2.69,1.52,3.27c3.31,1.13,3.51,4.31,4.74,6.94,5.38,11.5,14.36,15.34,23.27,10.35Zm27.84-12.5c6.39-2.71,11-6.11,14.19-11.37,1.93-3.21,3.64-7.16.32-9.66-3.83-2.88-7.32.22-9.8,3.3A21.21,21.21,0,0,0,581.73,100.07Z"/><path d="M183,113c-4.76-8.76-4.2-17.67-.38-26.49,5-11.45,12.77-15,27.68-12.34-1.45-10.76-2.39-21.37-.26-31.9A97.14,97.14,0,0,1,213,30.25c1.88-5.51,4.72-10.6,11.48-10.8,7-.21,10.64,4.6,13.24,10.18,5.14,11,3.52,22.73,2.66,34.2a101.34,101.34,0,0,1-5.49,26.94l-10.36-3.54c3.5-18.68,8.68-37.3,3.18-57.82-5.58,5.11-6.32,10.34-6.77,15.6-1.19,13.9-.2,27.72,1.58,41.51-4.08,1.16-3,7-7.36,8-2-5.11-3.05-10.91-10.52-11-6.29-.06-9.7,3.57-12.19,8.58a53.42,53.42,0,0,0-2.13,5.81c-4,1.89-9.14,3-5.86,9.53C185.48,109.49,183.59,111.18,183,113Z"/><path d="M366.94,80.05c-6.27,12.14-3.89,33.27,7.85,38.87a2.49,2.49,0,0,0,1.45.41,2.42,2.42,0,0,1,1.75-.05c-.89,5.59,6.85,4.12,7.14,8.74-12,2.06-20.89-3-26.86-15.63-1.48-3.11-2.29-6.53-3.41-9.81a1.12,1.12,0,0,0-1.93.16,57.75,57.75,0,0,1-14.66,19.68c-5.28,4.63-12.51,6.32-16.78,1.16-6.22-7.52-10.59-4.41-15.95-.3l-6.08-11c7.55-3.7,12-8.95,11.27-18.18-.48-6.15.62-12.45,1.28-18.65.32-3.08,0-7.6,4.57-7.23,4.24.34,7.6,3,8,8.1.48,5.68-3,10.78-2,16.54.42,2.3-.59,5,.21,7.07,1.7,4.42,1.35,10.83,7.18,12.09,5.48,1.18,6.82-4.6,9.51-7.93,3-3.66,3.63-8.78,7.63-11.73,3.4.63,5.49-.78,7.06-3.86,2.44-4.79,4.41-9.54,4.52-15.11,0-2.57,2.06-5.52,5.17-4.79,2.5.59,1.61,3.41,1,5.32C364,76.62,362.72,79.22,366.94,80.05Zm-50.78,25.76c-2.11,1-4.71,1.51-5.3,4.14-.46,2,1.2,3.18,2.83,4,4.08,2,8.67,2.64,12,6.46,1.59,1.81,5.55,1.26,6.57-1.81,1.09-3.3-2.33-2.39-4-3-4-1.41-7.69-3-9.14-7.48C318.69,106.64,318.15,105.3,316.16,105.81Z"/><path d="M271.1,67.6c3.15,2.74,7.25,2.18,10.91,2.95,11,2.3,12.46,4,12.15,15.42-.15,5.6-.18,11.2-.27,16.8a13.21,13.21,0,0,0,3.25,8.93c-2.47,1.14-6.62-1.12-7.48,2.66-.55,2.41,1.38,5,3.83,6.43,2.15,1.22,2.43,3.09,2.39,5.21-10.22-2.51-14.66-7.92-15.79-20.4-.53-5.87-.15-11.83,0-17.74.08-3.23-.08-5.8-4.25-6.31-3.55-.44-5.74-.38-7.37,3.83C264,96.94,258.66,108,249.45,117c-8.56,8.29-14.16,8.74-23.09.39-.08-3.36-.6-6.89,3.38-8.66,2.85,4.66,6.26,4.5,10.16,1.29,9.72-8,14.36-19,18.5-30.41,1.3-3.55-2.55-5-3.32-7.69,1-1,2.64-1.78,2.91-2.92,1.74-7.45,4.61-9.35,10-2.62C268.62,67.09,270,67.19,271.1,67.6Z"/><path d="M534.38,71.28c-4.83-1.26-9.28-2.09-8.36,5.53.25,2.05-1.38,3-3.32,3.26-3.34-19.2-.36-37.66,7-55.44,2.06-5,5.63-9.34,12-9,6,.32,9.67,4.25,12.15,9.23,5.37,10.79,5.83,22.49,4.05,34-.81,5.23.37,11.16-3.28,15.88-1.2-6.73-5.87-6.44-10.92-5.4,1.15-12.35,5.37-24.91-2.16-38.45C534.68,44.77,535.73,58.24,534.38,71.28Z"/><path d="M410,85.32c3.59-12.39.73-25.37,3.54-37.88,1.55-6.93,2.34-14,5.48-20.51,2.24-4.62,4.78-9.47,11-8.47,6.55,1,9.49,6.25,9.92,12.13.86,11.79-2.88,22.73-7.65,33.36-4,8.9-7.82,17.88-11.72,26.82-4.17-.76-3.26-3.32-2.12-6q2.24-5.22,4.5-10.44c1-2.28,1.92-4.88-1.23-5.88s-3.62,1.76-4.44,4.06C415.59,77.21,416.72,83.54,410,85.32Zm11.81-27.15c4.29-6.13,7-12.41,4.59-19.76Z"/><path d="M366.94,80.05c-4.22-.83-3-3.43-2.08-6.08.65-1.91,1.54-4.73-1-5.32-3.11-.73-5.13,2.22-5.17,4.79-.1,5.57-2.07,10.32-4.52,15.11-1.57,3.08-3.66,4.48-7.06,3.86,5.14-7,6.19-14.78,6.42-23.32.37-13.59,1.22-27.31,6.45-40.18,2.25-5.51,4.67-11.86,12.31-10.25,7.23,1.52,9.17,7.51,9.46,14.28.53,12.19-4.41,23-9,33.65C370.81,71.05,370.68,76.38,366.94,80.05Zm3.66-46.77c-3.24,7.33-5.56,14.88-5.35,23C368.81,49.07,371.44,41.6,370.6,33.28Z"/><path d="M481.79,82.58c-.22-.55-.3-1.26-.69-1.62-2.64-2.45.72-8.59-3.82-8.67-4-.07-1.93,5.55-3.68,8.05-.66,1-2.58,1-3.93,1.5,0-15.44.49-30.84,4.46-45.88a57.18,57.18,0,0,1,3.17-9.18c2.14-4.69,4.83-9.48,11.06-8.24,6.38,1.27,9.29,6.13,9.48,12.34C498.45,49.92,490.26,66.31,481.79,82.58Zm-1.73-26.42a21.88,21.88,0,0,0,5.2-19.9Z"/><path d="M569.32,120.21c.12-4.9-4-3.35-7.14-3.46,2.45-6.22,11.8-6.29,10.18-14.47-.16-.78,4.33-1.29,6.32.17,3.23,2.36,6.18,5.1,9.25,7.68,7.83,6.44,20.61,5.94,29.86-1.24,2.1-1.63,3.85-3.73,6-5.25,2.47-1.74,3.15-8.11,7.67-4.47,3.95,3.17,4.54,7.91,1.15,12.71-11.67,16.5-38.2,21.19-54.92,9.24C574.7,119,572.44,117.62,569.32,120.21Z"/><path d="M215.14,94.5c4.31-.95,3.28-6.83,7.36-8l2,.71,10.36,3.54-1.73,5.39c-1.83.18-4.14-.43-4.71,2.18-.47,2.16,1.09,2.83,2.87,3.13l-1.78,5.36c-10.86-1.49-8.72,4.82-6.65,11.09-3.83,7.64-10.18,12-18.54,11.32-10.15-.82-17.77-6.11-21.29-16.21.55-1.85,2.44-3.54,1.41-5.59-3.28-6.49,1.82-7.64,5.86-9.53a70,70,0,0,0,.51,8.84c.79,4.43,2.06,9.12,7,10.43,5.35,1.41,10.68.74,14.61-3.87,2.89-3.39,5.62-6.93,5-11.84,2.61-2.61.66-3.15-1.61-3.53Z"/><path d="M410,85.32c6.74-1.78,5.61-8.11,7.27-12.77.82-2.31,1.29-5.07,4.44-4.06s2.22,3.61,1.23,5.88q-2.26,5.21-4.5,10.44c-1.13,2.64-2,5.21,2.12,6,1.71,10.57,3,21.31,12.7,28.31l-1.91,8.26c-10.52-4.42-15.06-13.46-18.43-24.24-3.64,2.16-7.08,5.35-11.69,3.38l0-9.53,2-.73,5.12-1.85c.37,3.9,2.49,5.69,6.37,5,2.13-.36,2.57-2.14,2.37-4-.47-4.2-3.53-4.72-6.93-4.64L410,85.26Z"/><path d="M401.24,96.94l0,9.53c-3.73,4.64-3.49,11.19-7.56,15.68-2.39,2.63-4.66,5.41-8.53,5.88-.29-4.62-8-3.15-7.14-8.74,7.26-4.39,10.86-10.78,10.6-19.29,2.7-2.92,6.45-3.27,10-4.07Z"/><path d="M398.61,95.93c-3.57.8-7.31,1.15-10,4.07-6.33-4.21-8.53-10.92-10.35-17.7-.65-2.41-1.25-5.51,1.59-7.2s5.79-.82,8.1,1.31C393.67,81.68,396.86,88.43,398.61,95.93Z"/><path d="M328.36,51.49c-.13,6.78-2.46,10.92-8.78,10.7-6.14-.21-9.78-3.93-10-10.1-.17-5.83,2.85-9.56,9-9.66C325.16,42.33,327.77,46.52,328.36,51.49Z"/><path d="M553.89,112.57l4.7,6.21c-8.91,5-17.89,1.15-23.27-10.35-1.23-2.62-1.42-5.81-4.74-6.94-1.68-.57-2.55-1.68-1.52-3.27s2.78-2,4.52-.69c2.7,2.08,3.94,5,5,8.13,1.35,3.87,3.16,6.71,7.38,2.62C548.38,110.16,550.45,112.62,553.89,112.57Z"/><path d="M271.1,67.6c-1.05-.41-2.48-.51-3.1-1.27-5.41-6.73-8.29-4.83-10,2.62-.27,1.14-1.9,2-2.91,2.92-3.93-8-3-14.6,2.23-16.5C263,53.34,268.16,57.94,271.1,67.6Z"/><path d="M431.34,127.34l1.91-8.26c3.48.06,6.09-2,8.8-3.71,3.76,3,4.23,7,3.77,11.38C441.13,130.09,436.27,129.62,431.34,127.34Z"/><path d="M295.87,126c0-2.12-.24-4-2.39-5.21-2.45-1.39-4.38-4-3.83-6.43.86-3.78,5-1.53,7.48-2.66l2.33.62,6.08,11A10.83,10.83,0,0,1,295.87,126Z"/><path d="M222.86,117.93c-2.06-6.27-4.2-12.58,6.65-11.09l.22,1.85c-4,1.77-3.46,5.3-3.38,8.66Z"/><path d="M408.35,94.36l-5.12,1.85A25.23,25.23,0,0,1,410,85.26l.13,5.55Z"/><path d="M231.3,101.48c-1.78-.3-3.34-1-2.87-3.13.57-2.61,2.88-2,4.71-2.18Z"/><path d="M352.94,102.75a1.12,1.12,0,0,1,1.93-.16Z"/><path d="M376.24,119.34a2.49,2.49,0,0,1-1.45-.41A1.1,1.1,0,0,1,376.24,119.34Z"/><path d="M316.16,105.82c2-.52,2.53.82,3,2.29,1.46,4.43,5.19,6.07,9.14,7.48,1.66.59,5.08-.32,4,3-1,3.07-5,3.62-6.57,1.81-3.37-3.83-8-4.49-12-6.46-1.62-.79-3.29-1.93-2.83-4C311.45,107.32,314.05,106.77,316.16,105.82Z"/><path d="M217.42,101.47c-1-1-2-1.95-1.61-3.53C218.08,98.33,220,98.86,217.42,101.47Z"/><path d="M408.35,94.36l1.81-3.56c3.41-.08,6.47.44,6.93,4.64.2,1.81-.24,3.59-2.37,4C410.84,100.06,408.72,98.27,408.35,94.36Z"/><path class="cls-12" d="M53,24.43C58.49,29.9,61.68,36.93,66,43.2c.83,1.22,1.72,2.39,2.59,3.59a7.48,7.48,0,0,0,.47,1.4c4.14,7.28,4.15,7.29-4.14,9.28-3.36.8-6.75,1.5-10.13,2.25L29.84,62.53c-6-14.42.05-25.34,11.57-32.52C45,27.75,49.15,26.27,53,24.43Z"/><path class="cls-11" d="M105.76,25.77c3.51,2.05,8.24,2.34,10,6.93A79.34,79.34,0,0,1,89.34,50c-3,1.21-4.35.26-5.34-2.33a3.84,3.84,0,0,0,4.16-2.09c3.62-7.91,10.21-13,16.79-18.13C105.39,27.14,105.49,26.35,105.76,25.77Z"/><path class="cls-10" d="M60.76,64.66c-.64-.05-1.41-.05-1.4-.92s.78-.9,1.42-.9,1.41.05,1.4.92S61.4,64.61,60.76,64.66Z"/><path class="cls-10" d="M68.87,67.76l-1,.61Z"/></svg>