<svg id="Camada_1" data-name="Camada 1" xmlns="http://www.w3.org/2000/svg" xmlns:xlink="http://www.w3.org/1999/xlink" viewBox="0 0 395.71 96.26"><defs><style>.cls-1{font-size:106.42px;fill:#1d1d1b;font-family:Quicksand-Medium, Quicksand;}.cls-2{fill:url(#Gradiente_sem_nome_44);}.cls-3{fill:url(#Gradiente_sem_nome_3);}.cls-4{fill:url(#Gradiente_sem_nome_43);}.cls-5{fill:url(#Gradiente_sem_nome_101);}.cls-6{fill:url(#Gradiente_sem_nome_2);}</style><linearGradient id="Gradiente_sem_nome_44" x1="205.73" y1="23.7" x2="231.67" y2="49.65" gradientUnits="userSpaceOnUse"><stop offset="0" stop-color="#50b793"/><stop offset="1" stop-color="#50b793" stop-opacity="0.6"/></linearGradient><linearGradient id="Gradiente_sem_nome_3" x1="221.17" y1="89.51" x2="272.88" y2="37.8" gradientUnits="userSpaceOnUse"><stop offset="0" stop-color="#50b793" stop-opacity="0.6"/><stop offset="1" stop-color="#50b793"/></linearGradient><linearGradient id="Gradiente_sem_nome_43" x1="250.11" y1="21.6" x2="255.8" y2="27.29" xlink:href="#Gradiente_sem_nome_44"/><linearGradient id="Gradiente_sem_nome_101" x1="0" y1="47.99" x2="39.48" y2="47.99" xlink:href="#Gradiente_sem_nome_44"/><linearGradient id="Gradiente_sem_nome_2" x1="356.23" y1="48.16" x2="395.71" y2="48.16" xlink:href="#Gradiente_sem_nome_3"/></defs><title>header</title><text class="cls-1" transform="translate(49.83 84.99)">J </text><path class="cls-2" d="M203.73,49.2a28.7,28.7,0,0,1,40.74-26,8.57,8.57,0,0,1,5-6.69,36.91,36.91,0,0,0-43.31,58.68L212,69.3A28.6,28.6,0,0,1,203.73,49.2Z"/><path class="cls-3" d="M261.31,26.23a8.58,8.58,0,0,1-5.61,6.19,28.7,28.7,0,0,1-39.18,40.67L210.66,79a36.91,36.91,0,0,0,50.65-52.78Z"/><circle class="cls-4" cx="252.96" cy="24.44" r="4.02"/><text class="cls-1" transform="translate(104.64 84.99)">M</text><text class="cls-1" transform="translate(271.79 84.99)">B</text><path class="cls-5" d="M38.68,90.24a3.66,3.66,0,0,1,.8,2.23A3.81,3.81,0,0,1,38.36,95,3.28,3.28,0,0,1,36,96a6.4,6.4,0,0,1-1.38-.11q-7.77-1.49-12.08-4.31a15.15,15.15,0,0,1-6-6.76,24.45,24.45,0,0,1-1.65-9.47L15,65.23q0-6.17-2.71-9.68a9.57,9.57,0,0,0-7.82-3.62H4a3.9,3.9,0,0,1-2.87-1.17A3.9,3.9,0,0,1,0,47.89a3.73,3.73,0,0,1,1.17-2.82A4,4,0,0,1,4,44h.64a9.26,9.26,0,0,0,7.72-3.62Q15,36.82,15,30.75L14.9,20.65q0-8.62,4.52-13.41T34.48.11A7.39,7.39,0,0,1,35.86,0a3.37,3.37,0,0,1,2.71,1.06,4,4,0,0,1,.9,2.66,3.24,3.24,0,0,1-.8,2.13A4.46,4.46,0,0,1,36.5,7.24a28.65,28.65,0,0,0-7.72,3.62,9.51,9.51,0,0,0-3.51,4.47,20.51,20.51,0,0,0-.9,6.7l.11,10.11a18,18,0,0,1-2.71,10.22A14.14,14.14,0,0,1,14,48a14.76,14.76,0,0,1,7.72,5.69,17.5,17.5,0,0,1,2.71,10.06l-.11,10.11a20.43,20.43,0,0,0,.9,6.76A9.66,9.66,0,0,0,28.73,85a27.56,27.56,0,0,0,7.77,3.62A4.8,4.8,0,0,1,38.68,90.24Z"/><path class="cls-6" d="M394.54,45.29a3.91,3.91,0,0,1,1.17,2.87A3.73,3.73,0,0,1,394.54,51a4,4,0,0,1-2.87,1.12H391q-5.11.11-7.72,3.62T380.7,65.4l.11,10.11a20.74,20.74,0,0,1-1.76,9A16.48,16.48,0,0,1,373,91a44.56,44.56,0,0,1-11.92,5.05,6.28,6.28,0,0,1-1.49.21A2.93,2.93,0,0,1,357.18,95a4.38,4.38,0,0,1-1-2.66,3,3,0,0,1,.8-2.08,5.44,5.44,0,0,1,2.18-1.44A28.79,28.79,0,0,0,367,85.25a9.33,9.33,0,0,0,3.46-4.42,21,21,0,0,0,.9-6.81l-.11-10.11a18,18,0,0,1,2.71-10.22,14.14,14.14,0,0,1,7.72-5.64,14.85,14.85,0,0,1-7.72-5.64,17.43,17.43,0,0,1-2.71-10.11l.11-10.11a20.47,20.47,0,0,0-.9-6.76A9.68,9.68,0,0,0,367,11a27.58,27.58,0,0,0-7.77-3.62q-3-1.17-3-3.83a3.79,3.79,0,0,1,1.12-2.5,3.27,3.27,0,0,1,2.39-1,6.43,6.43,0,0,1,1.38.11q7.77,1.6,12.08,4.42a15.24,15.24,0,0,1,6,6.7,24.08,24.08,0,0,1,1.65,9.42l-.11,10.11q0,6.17,2.71,9.68a9.56,9.56,0,0,0,7.82,3.62h.43A3.91,3.91,0,0,1,394.54,45.29Z"/></svg>