<svg id="Camada_1" data-name="Camada 1" xmlns="http://www.w3.org/2000/svg" viewBox="0 0 640 480"><defs><style>.cls-1{fill:#f6df19;}.cls-2{fill:#1d1d1b;}</style></defs><title>js</title><rect class="cls-1" width="640" height="480"/><path class="cls-2" d="M308.33,398.34l34.61-20.95c6.68,11.84,12.75,21.86,27.32,21.86,14,0,22.77-5.46,22.77-26.72V228h42.5V373.14c0,44-25.81,64.06-63.45,64.06C338.08,437.2,318.34,419.59,308.33,398.34Z"/><path class="cls-2" d="M458.6,393.79l34.61-20c9.11,14.88,20.95,25.81,41.9,25.81,17.61,0,28.84-8.8,28.84-20.95,0-14.57-11.54-19.73-31-28.23l-10.63-4.55c-30.66-13.05-51-29.45-51-64.06,0-31.88,24.29-56.17,62.24-56.17,27,0,46.45,9.41,60.42,34l-33.09,21.25c-7.29-13.06-15.18-18.22-27.32-18.22-12.45,0-20.34,7.89-20.34,18.22,0,12.75,7.89,17.91,26.11,25.81L550,311.21c36.13,15.48,56.47,31.27,56.47,66.79,0,38.25-30.06,59.2-70.44,59.2C496.55,437.2,471.05,418.38,458.6,393.79Z"/></svg>