<svg id="Camada_1" data-name="Camada 1" xmlns="http://www.w3.org/2000/svg" xmlns:xlink="http://www.w3.org/1999/xlink" viewBox="0 0 464.02 257.01"><defs><style>.cls-1{opacity:0.5;fill:url(#Gradiente_sem_nome_16);}</style><radialGradient id="Gradiente_sem_nome_16" cx="44.78" cy="217.81" r="80.97" gradientTransform="translate(103.7 82.29) scale(2.87 0.58)" gradientUnits="userSpaceOnUse"><stop offset="0"/><stop offset="1" stop-color="#fff" stop-opacity="0"/></radialGradient></defs><title>transparentLogo</title><path d="M180.53,113.12a6.64,6.64,0,1,0-6.64-6.64A6.64,6.64,0,0,0,180.53,113.12Zm219.08,22.69c-1-.71-1.79-.83-2.44.55-11.15,24.15-29.94,12.1-28.07,13.16,4.17-1.91,15.13-10.7,13.47-22.84-1-7.42-7.37-10.71-14.13-9.53-11.8,2.06-16.14,14.78-13.93,26a23.76,23.76,0,0,0,1.77,5.09c-13.33,10.84-18.62-9.7-19.22-12.16,0-.13,10.29-8.73,13.16-29.22,3-21.48-3.84-25.39-10.85-25.26-13,.23-16.47,27.31-11.76,49.89a14.4,14.4,0,0,1-5.18,1.23c-2.12-6.67-11.18-12.52-13.56-10.27-5.94,5.64,1.44,16.66,6.63,17.53-3.12,19.2-22.62,14.45-19-9.61,6.35-11.79,11.18-29.32,10.32-39.91-.31-3.75-3.08-8.77-9.34-8.52-12.05.48-13.36,27.57-11.95,46.8-.07-.47-.74,2.34-5.68,3.73-1.17-6.48-11.61-13-14.07-9.86-4.6,5.86,3.37,16.3,7.15,17-3.12,19.2-22.61,14.45-19-9.61,6.35-11.79,11.18-29.32,10.32-39.91-.31-3.75-3.08-8.77-9.34-8.52-12.05.48-13.36,27.57-11.95,46.8-.07-.48-.76,2.42-5.9,3.8-.17-8.41-10.65-12.27-13.17-9.59-4.49,4.78,1,14.6,6.13,17-3.12,19.2-22.61,14.45-19-9.61,6.35-11.79,11.18-29.32,10.32-39.91-.3-3.75-3.08-8.77-9.34-8.52-12.05.48-13,28.93-11.61,48.16-4,17-17.28,38.24-15.55-4.3.17-3,.36-4.12-1.13-5.23-1.11-.87-3.65-.45-5-.42-1.68.07-2.11,1.05-2.48,2.54a63.1,63.1,0,0,0-1.15,12.66,23.05,23.05,0,0,1-1.19,6.74c-.92,3.24-6.14,9.18-9,8.18-4-1.36-2.67-12.56-1.92-20.26.62-6.08-1.36-8.81-6.45-9.8-3-.62-4.78-.52-7.88-1.5-2.93-.92-3.59-6.47-9.84-4.62-3.42,1-1.22,8.25-2,13.62-4,26.4-12.44,27.13-16.34,14.3,17.56-43,5.08-60-2.23-60-7.61,0-16.3,5.24-12.62,38.77a11.82,11.82,0,0,0-4.3-.8c-11.09,0-18.64,9-18.64,20s7.55,20,18.64,20c6.54,0,11.14-3,14.62-7.58,2.27,3.25,5,7.63,10.09,7.43,15.07-.59,19.45-31.5,20-33.22,1.61.25,3.14.72,4.62,1,2.48.37,2.66,1.35,2.6,3.85-.66,21,3.22,28.39,12,28.39,4.9,0,9.27-4.82,12.28-8.26,2.25,4.64,5.83,8.12,10.64,8.26,11.65.29,16.11-18.28,15.7-15.83-.32,1.92,3.78,15.73,15.77,15.78,14.85.06,17.62-16.27,17.94-19,0-.54.06-.49,0,0v.17a14,14,0,0,0,7.15-3.41s3.79,22.5,17.81,22.25c14.57-.26,17.31-15,17.67-17.91,0-.68.08-.6,0,0v.08c5.6-2,7.08-4.08,7.08-4.08s3,22.05,17.81,22.25c13.19.17,18.08-13.34,18.11-19a21.15,21.15,0,0,0,6.24-1.4s4.83,19.28,18.33,20.27c6.34.46,11.09-3.57,13.8-5.4,6.37,5.16,27.57,11.74,41-11,1.89-3.26-2.17-7.11-2.89-7.61ZM100.75,152.29c-6.47,0-10.62-6-10.62-12.43s3.81-12.43,10.28-12.43c2.91,0,4.53.32,6.8,2.29.41,1.62,1.58,5.36,2.14,7.05.76,2.27,1.66,4.2,2.57,6.31-1.3,5.4-5.57,9.21-11.17,9.21Zm15.76-22.38c-.27-.43-.21-.17-.51-.57a62.09,62.09,0,0,1-3.74-18.6c-.3-9.25,1.24-20.09,5.79-20.09,3.08,0,6.35,22-1.54,39.26Zm91.07-9.64c-.73-5.49-.77-30,5.11-29.29C215.94,92.3,210.64,115.39,207.59,120.27Zm42.9,0c-.73-5.49-.77-30,5.11-29.29C258.83,92.3,253.53,115.39,250.48,120.27Zm42.55.34c-.73-5.49-.77-30,5.11-29.29C301.39,92.64,296.09,115.73,293,120.62Zm47-31.06c5.37-.56,5.15,22.9-5.63,37.7-1.39-5.35-3.52-35.87,5.63-37.7ZM362.59,140c-1.72-8.71,2.73-14.44,7.33-15.06a4.07,4.07,0,0,1,4.4,2.73c.76,3.67-.11,9.1-10.39,16a14.16,14.16,0,0,1-1.33-3.67Z" transform="translate(-3.98 -81.64)"/><path d="M94.76,212v-.69l2.78-.35V195.55h-.67a25.51,25.51,0,0,0-4.52.26L92,198.54h-.88v-4.12h15.42v4.12h-.89l-.35-2.73a12.82,12.82,0,0,0-1.71-.16q-1.32-.07-2.89-.07h-.64v15.33l2.78.35V212Z" transform="translate(-3.98 -81.64)"/><path d="M108.53,205.77V206a7.83,7.83,0,0,0,.4,2.8,3.09,3.09,0,0,0,1.23,1.52,4,4,0,0,0,2.18.52,14.1,14.1,0,0,0,1.67-.12,16,16,0,0,0,1.59-.26v.73a6.3,6.3,0,0,1-1.71.71,8.17,8.17,0,0,1-2.2.3,5.24,5.24,0,0,1-4.19-1.54q-1.33-1.54-1.33-5a7.26,7.26,0,0,1,1.35-4.8,4.77,4.77,0,0,1,3.84-1.58q4.72,0,4.72,5.36v1.07Zm2.84-5.39a2.35,2.35,0,0,0-2.08,1.1,5.91,5.91,0,0,0-.73,3.24h5.25a6.84,6.84,0,0,0-.6-3.34A2,2,0,0,0,111.36,200.39Z" transform="translate(-3.98 -81.64)"/><path d="M126.46,208.51a3.36,3.36,0,0,1-1.16,2.77,5.32,5.32,0,0,1-3.42.94,12.05,12.05,0,0,1-2-.19,9.92,9.92,0,0,1-1.73-.42v-3h.59l.64,1.71a3.65,3.65,0,0,0,2.55.89q2.54,0,2.54-2.17,0-1.59-2-2.27l-1.16-.38a7.05,7.05,0,0,1-1.92-.88,3.05,3.05,0,0,1-.93-1.09,3.43,3.43,0,0,1-.33-1.56,3.17,3.17,0,0,1,1.1-2.56,4.48,4.48,0,0,1,3-.93,17.81,17.81,0,0,1,3.37.41v2.68H125l-.55-1.42a3.23,3.23,0,0,0-2.18-.61,2.27,2.27,0,0,0-1.61.52,1.85,1.85,0,0,0-.56,1.41,1.72,1.72,0,0,0,.5,1.25,3.81,3.81,0,0,0,1.52.85,23.51,23.51,0,0,1,2.51,1,3.63,3.63,0,0,1,1,.74,3.23,3.23,0,0,1,.64,1A3.69,3.69,0,0,1,126.46,208.51Z" transform="translate(-3.98 -81.64)"/><path d="M131.8,212.22a2.3,2.3,0,0,1-1.88-.74,3.18,3.18,0,0,1-.62-2.09v-8.61h-1.61v-.59l1.63-.51,1.32-2.78h.82v2.78h2.81v1.1h-2.81v8.38a1.87,1.87,0,0,0,.39,1.28,1.29,1.29,0,0,0,1,.43,10,10,0,0,0,1.84-.21v.85a4,4,0,0,1-1.32.52A7,7,0,0,1,131.8,212.22Z" transform="translate(-3.98 -81.64)"/><path d="M151,211a5.38,5.38,0,0,1-3.45,1.18q-5,0-5-6.29A7.4,7.4,0,0,1,144,201a5.19,5.19,0,0,1,4.2-1.68,14.1,14.1,0,0,1,2.86.3,17.05,17.05,0,0,1-.08-2.17v-3.19l-2.07-.31v-.59h4.24V211l1.52.33V212h-3.45Zm-6.13-5.11a6.61,6.61,0,0,0,.84,3.71,2.89,2.89,0,0,0,2.56,1.22,6.61,6.61,0,0,0,2.65-.51v-9.71a14.25,14.25,0,0,0-2.65-.22Q144.88,200.41,144.88,205.93Z" transform="translate(-3.98 -81.64)"/><path d="M158.34,205.77V206a7.83,7.83,0,0,0,.4,2.8,3.09,3.09,0,0,0,1.23,1.52,4,4,0,0,0,2.18.52,14.1,14.1,0,0,0,1.67-.12,16,16,0,0,0,1.59-.26v.73a6.3,6.3,0,0,1-1.71.71,8.17,8.17,0,0,1-2.2.3,5.24,5.24,0,0,1-4.19-1.54q-1.33-1.54-1.33-5a7.26,7.26,0,0,1,1.35-4.8,4.77,4.77,0,0,1,3.84-1.58q4.72,0,4.72,5.36v1.07Zm2.84-5.39a2.35,2.35,0,0,0-2.08,1.1,5.91,5.91,0,0,0-.73,3.24h5.25a6.84,6.84,0,0,0-.6-3.34A2,2,0,0,0,161.18,200.39Z" transform="translate(-3.98 -81.64)"/><path d="M174.11,212.22h-1l-5.06-11.63-1.25-.33v-.59h5.73v.59l-1.95.35,3.58,8.48,3.42-8.51-1.95-.33v-.59h4.55v.59l-1.18.27Z" transform="translate(-3.98 -81.64)"/><path d="M183.61,205.77V206a7.83,7.83,0,0,0,.4,2.8,3.09,3.09,0,0,0,1.23,1.52,4,4,0,0,0,2.18.52,14.1,14.1,0,0,0,1.67-.12,16,16,0,0,0,1.59-.26v.73a6.3,6.3,0,0,1-1.71.71,8.17,8.17,0,0,1-2.2.3,5.24,5.24,0,0,1-4.19-1.54q-1.33-1.54-1.33-5a7.26,7.26,0,0,1,1.35-4.8,4.77,4.77,0,0,1,3.84-1.58q4.72,0,4.72,5.36v1.07Zm2.84-5.39a2.35,2.35,0,0,0-2.08,1.1,5.91,5.91,0,0,0-.73,3.24h5.25a6.84,6.84,0,0,0-.6-3.34A2,2,0,0,0,186.45,200.39Z" transform="translate(-3.98 -81.64)"/><path d="M196.89,211l2.1.33V212h-6.37v-.59l2.09-.33V194.28l-2.09-.31v-.59h4.26Z" transform="translate(-3.98 -81.64)"/><path d="M211.9,205.75q0,6.47-5.75,6.47a5.18,5.18,0,0,1-4.18-1.66,7.23,7.23,0,0,1-1.41-4.81A7.11,7.11,0,0,1,202,201a6.37,6.37,0,0,1,8.51,0A7,7,0,0,1,211.9,205.75Zm-2.35,0a7.75,7.75,0,0,0-.82-4.09,2.85,2.85,0,0,0-2.57-1.27,2.7,2.7,0,0,0-2.48,1.22,8.22,8.22,0,0,0-.76,4.14,8.32,8.32,0,0,0,.78,4.2,2.7,2.7,0,0,0,2.46,1.24,2.85,2.85,0,0,0,2.56-1.28A7.85,7.85,0,0,0,209.55,205.75Z" transform="translate(-3.98 -81.64)"/><path d="M214.9,200.58l-1.4-.33v-.59H217l0,.72a4.13,4.13,0,0,1,1.47-.76,6.27,6.27,0,0,1,1.88-.29A4.37,4.37,0,0,1,224,201a9.11,9.11,0,0,1-.12,9.53,5,5,0,0,1-4.06,1.71,13.32,13.32,0,0,1-2.81-.29q.08.94.08,1.48v3.32l2.14.31v.61h-5.86V217l1.56-.31Zm8,5.08a6.8,6.8,0,0,0-.82-3.73,2.78,2.78,0,0,0-2.48-1.22,6.56,6.56,0,0,0-2.55.43V211a13.59,13.59,0,0,0,2.55.22Q222.9,211.18,222.9,205.67Z" transform="translate(-3.98 -81.64)"/><path d="M229.7,205.77V206a7.83,7.83,0,0,0,.4,2.8,3.09,3.09,0,0,0,1.23,1.52,4,4,0,0,0,2.18.52,14.1,14.1,0,0,0,1.67-.12,16,16,0,0,0,1.59-.26v.73a6.3,6.3,0,0,1-1.71.71,8.17,8.17,0,0,1-2.2.3,5.24,5.24,0,0,1-4.19-1.54q-1.33-1.54-1.33-5a7.26,7.26,0,0,1,1.35-4.8,4.77,4.77,0,0,1,3.84-1.58q4.72,0,4.72,5.36v1.07Zm2.84-5.39a2.35,2.35,0,0,0-2.08,1.1,5.91,5.91,0,0,0-.73,3.24H235a6.84,6.84,0,0,0-.6-3.34A2,2,0,0,0,232.54,200.39Z" transform="translate(-3.98 -81.64)"/><path d="M247.64,211a5.38,5.38,0,0,1-3.45,1.18q-5,0-5-6.29a7.4,7.4,0,0,1,1.42-4.91,5.19,5.19,0,0,1,4.2-1.68,14.1,14.1,0,0,1,2.86.3,17.05,17.05,0,0,1-.08-2.17v-3.19l-2.07-.31v-.59h4.24V211l1.52.33V212h-3.45Zm-6.13-5.11a6.61,6.61,0,0,0,.84,3.71,2.89,2.89,0,0,0,2.56,1.22,6.61,6.61,0,0,0,2.65-.51v-9.71a14.25,14.25,0,0,0-2.65-.22Q241.5,200.41,241.51,205.93Z" transform="translate(-3.98 -81.64)"/><path d="M260.05,194.28l-1.79-.31v-.59h4v4.39q0,.71-.08,2.59a5.19,5.19,0,0,1,3.29-1,4.86,4.86,0,0,1,3.85,1.52,6.81,6.81,0,0,1,1.34,4.61,7.54,7.54,0,0,1-1.47,5,5.29,5.29,0,0,1-4.25,1.72,13.82,13.82,0,0,1-2.48-.25,12.6,12.6,0,0,1-2.37-.65Zm8.22,11.19a6.21,6.21,0,0,0-.84-3.58,3,3,0,0,0-2.59-1.18,8.59,8.59,0,0,0-1.53.14,4.94,4.94,0,0,0-1.1.29v9.74a14.23,14.23,0,0,0,2.63.21,2.79,2.79,0,0,0,2.61-1.41A8.65,8.65,0,0,0,268.28,205.47Z" transform="translate(-3.98 -81.64)"/><path d="M274.25,217.73a8.7,8.7,0,0,1-2-.24v-2.65h.61l.43,1.26a1.85,1.85,0,0,0,1.12.3,2.18,2.18,0,0,0,1.25-.39,3.79,3.79,0,0,0,1.05-1.16,16.61,16.61,0,0,0,1.2-2.76l-4.68-11.5-1.25-.33v-.59h5.7v.59l-1.93.35,3.32,8.59,3.22-8.61-1.92-.33v-.59h4.57v.59l-1.28.27-4.8,12.2a17.74,17.74,0,0,1-1.48,3.1,4.82,4.82,0,0,1-1.39,1.42A3.16,3.16,0,0,1,274.25,217.73Z" transform="translate(-3.98 -81.64)"/><path d="M310.78,214.36a12.44,12.44,0,0,1-3.72,2.06,12.8,12.8,0,0,1-4,.62,10.57,10.57,0,0,1-5.18-1.24,8.58,8.58,0,0,1-3.46-3.48,10.5,10.5,0,0,1-1.22-5.1,13.8,13.8,0,0,1,1.64-6.72,11.93,11.93,0,0,1,4.54-4.69,12.53,12.53,0,0,1,6.42-1.69,10,10,0,0,1,6.8,2.1,7.41,7.41,0,0,1,2.41,5.9,9.18,9.18,0,0,1-1.27,4.67,9.83,9.83,0,0,1-3.42,3.51,8.49,8.49,0,0,1-4.5,1.32q-.85,0-.85-.67a15.87,15.87,0,0,1,.1-1.63A9.55,9.55,0,0,1,302.8,211a4.3,4.3,0,0,1-2,.58,1.69,1.69,0,0,1-1.46-.71,3.17,3.17,0,0,1-.52-1.9,11.65,11.65,0,0,1,.4-3,9.55,9.55,0,0,1,1.12-2.63,7.13,7.13,0,0,1,1.82-2,6.7,6.7,0,0,1,2.14-1.1,10.45,10.45,0,0,1,2.75-.29h.47a9.19,9.19,0,0,1,1.12.08L307.18,207q-.1.46-.2,1.2a9.41,9.41,0,0,0-.1,1.07.73.73,0,0,0,.24.65,1.31,1.31,0,0,0,.73.16,4.18,4.18,0,0,0,2.77-1.07,7.18,7.18,0,0,0,2-3,10.76,10.76,0,0,0,.73-3.91,6.53,6.53,0,0,0-2-5.12,8.11,8.11,0,0,0-5.62-1.83,10.07,10.07,0,0,0-9.33,5.77,13.67,13.67,0,0,0-1.41,6.22,9.85,9.85,0,0,0,1,4.54,7.41,7.41,0,0,0,2.93,3.1,8.86,8.86,0,0,0,4.54,1.12,11,11,0,0,0,6.93-2.25Zm-4.17-13-.64-.05a6.24,6.24,0,0,0-2.84.58,4.15,4.15,0,0,0-1.83,2.31,9.85,9.85,0,0,0-.69,3.67q0,1.95,1,1.95a4.45,4.45,0,0,0,1.69-.41,6.72,6.72,0,0,0,1.76-1.08Z" transform="translate(-3.98 -81.64)"/><path d="M329.44,211.37V212h-5.57v-.59l1.63-.3-2.84-4.35-3.32,4.38,1.69.27V212h-4.42v-.59l1.42-.21,4-5.33-3.56-5.24-1.45-.33v-.59h5.57v.59l-1.63.35,2.37,3.53,2.72-3.56-1.69-.33v-.59h4.42v.59l-1.41.27L324,205l4,6.09Z" transform="translate(-3.98 -81.64)"/><path d="M333.16,205.77V206a7.83,7.83,0,0,0,.4,2.8,3.09,3.09,0,0,0,1.23,1.52,4,4,0,0,0,2.18.52,14.1,14.1,0,0,0,1.67-.12,16,16,0,0,0,1.59-.26v.73a6.3,6.3,0,0,1-1.71.71,8.17,8.17,0,0,1-2.2.3,5.24,5.24,0,0,1-4.19-1.54q-1.33-1.54-1.33-5a7.26,7.26,0,0,1,1.35-4.8,4.77,4.77,0,0,1,3.84-1.58q4.72,0,4.72,5.36v1.07Zm2.84-5.39a2.35,2.35,0,0,0-2.08,1.1,5.91,5.91,0,0,0-.73,3.24h5.25a6.84,6.84,0,0,0-.6-3.34A2,2,0,0,0,336,200.39Z" transform="translate(-3.98 -81.64)"/><path d="M350.33,199.34v3.32h-.56l-.76-1.44a8.17,8.17,0,0,0-1.55.18,7.41,7.41,0,0,0-1.55.46V211l2.1.33V212h-5.83v-.59l1.56-.33V200.58l-1.56-.33v-.59h3.58l.12,1.53a9.25,9.25,0,0,1,2.12-1.26,5.62,5.62,0,0,1,2.12-.6Z" transform="translate(-3.98 -81.64)"/><path d="M354,205.77V206a7.83,7.83,0,0,0,.4,2.8,3.09,3.09,0,0,0,1.23,1.52,4,4,0,0,0,2.18.52,14.1,14.1,0,0,0,1.67-.12,16,16,0,0,0,1.59-.26v.73a6.3,6.3,0,0,1-1.71.71,8.17,8.17,0,0,1-2.2.3,5.24,5.24,0,0,1-4.19-1.54q-1.33-1.54-1.33-5a7.26,7.26,0,0,1,1.35-4.8,4.77,4.77,0,0,1,3.84-1.58q4.72,0,4.72,5.36v1.07Zm2.84-5.39a2.35,2.35,0,0,0-2.08,1.1,5.91,5.91,0,0,0-.73,3.24h5.25a6.84,6.84,0,0,0-.6-3.34A2,2,0,0,0,356.8,200.39Z" transform="translate(-3.98 -81.64)"/><path d="M371.89,211a5.38,5.38,0,0,1-3.45,1.18q-5,0-5-6.29a7.4,7.4,0,0,1,1.42-4.91,5.19,5.19,0,0,1,4.2-1.68,14.1,14.1,0,0,1,2.86.3,17.05,17.05,0,0,1-.08-2.17v-3.19l-2.07-.31v-.59H374V211l1.52.33V212h-3.45Zm-6.13-5.11a6.61,6.61,0,0,0,.84,3.71,2.89,2.89,0,0,0,2.56,1.22,6.61,6.61,0,0,0,2.65-.51v-9.71a14.25,14.25,0,0,0-2.65-.22Q365.76,200.41,365.76,205.93Z" transform="translate(-3.98 -81.64)"/><path d="M381.91,199.39a4.44,4.44,0,0,1,3,.82,3.17,3.17,0,0,1,.95,2.52V211l1.53.33V212H384l-.25-1.23a5.15,5.15,0,0,1-3.8,1.49q-3.15,0-3.15-3.66a3.93,3.93,0,0,1,.48-2,3,3,0,0,1,1.52-1.23,8.88,8.88,0,0,1,3-.46l1.84-.05v-1.92a3.06,3.06,0,0,0-.46-1.87,1.69,1.69,0,0,0-1.43-.6,4.77,4.77,0,0,0-2.39.61l-.44,1.53h-.73v-2.68A17.94,17.94,0,0,1,381.91,199.39Zm1.74,6.3-1.71.05a3.61,3.61,0,0,0-2.37.68,2.81,2.81,0,0,0-.62,2.05q0,2.3,1.87,2.3a5.17,5.17,0,0,0,1.54-.2,9.76,9.76,0,0,0,1.3-.52Z" transform="translate(-3.98 -81.64)"/><ellipse class="cls-1" cx="232.01" cy="209.66" rx="232.01" ry="47.35"/></svg>