<svg id="Camada_1" data-name="Camada 1" xmlns="http://www.w3.org/2000/svg" viewBox="0 0 605 316"><defs><style>.cls-1{fill:#023850;}.cls-2{fill:#a5c139;}.cls-3{fill:#396435;}.cls-4{fill:#dd5726;}.cls-5{fill:#138bad;}</style></defs><title>zup</title><path class="cls-1" d="M415.56,218.53c0-26.66.09-53.32-.07-80a33.25,33.25,0,0,1,3.67-16.3c2.8-5.28,5.15-10.8,7.78-16.18a13.33,13.33,0,0,1,12.79-8q61,0,122,0a21,21,0,0,1,19.3,11.3c8.57,15.4,15.77,31.49,23,47.56,1.56,3.46.49,7.26.88,10.87a81.4,81.4,0,0,1-12,52.86c-3.9,6.34-6.55,13.44-10,20.1-5,9.71-12.33,14.85-23.94,14.48-18.64-.59-37.31-.08-56-.11-13.49,0-19.21-9.17-13.39-21.33,5.23-10.95,10.63-21.82,15.71-32.83,3-6.54,7.81-9.62,15-9.31,3.66.16,7.34.17,11,0,6.11-.32,9.44-3.79,9.64-9.86.11-3.33.12-6.67,0-10-.21-5.77-3.58-9.58-9.31-9.66q-21.49-.32-43,0c-6.17.08-9.06,3.58-9.06,10q0,64.48,0,129c0,10.85-3.94,14.86-14.62,14.86q-18,0-36,0c-9.16,0-13.36-4.19-13.38-13.49Q415.51,260.51,415.56,218.53Z"/><path class="cls-1" d="M307.86,255.18c-16.67,0-33.34-.31-50,.1-11.62.29-19.42-4.82-24.33-14.89-6.78-13.9-13.35-27.9-20-41.84a18.52,18.52,0,0,1-1.68-8.23q0-40,0-80c0-7.18,4.55-12,11.68-12.19,9.5-.2,19-.14,28.5,0a12.78,12.78,0,0,1,12,7.56c3.51,7.17,6.9,14.4,10.3,21.62a17.73,17.73,0,0,1,1.4,7.79q-.08,22.5,0,45c0,8,3.22,11.19,11.19,11.21q21,.05,42,0c8.33,0,11.4-3,11.44-11.51.08-14.17.12-28.33,0-42.5a28.48,28.48,0,0,1,3.17-13.91c2.92-5.6,5.49-11.38,8.19-17.09s7.07-8.2,13.14-8.21c9,0,18-.1,27,0,7.75.1,12.43,4.77,12.45,12.53.07,26.33,0,52.67,0,79a23.86,23.86,0,0,1-2.45,10.59q-9.35,19.3-18.53,38.69c-5.29,11.24-13.52,16.9-26.45,16.41C340.54,254.72,324.19,255.18,307.86,255.18Z"/><path class="cls-2" d="M129.65,191c17.16.07,34.32.32,51.48.13,8.17-.09,13.44,3.14,16.79,10.65,4.88,10.94,10.36,21.61,15.5,32.43,5.47,11.53-.46,20.8-13.29,20.8-54,0-108-.05-162,.08-7.4,0-12.23-2.89-15.35-9.57Q12.67,223.78,2,202.31c-3.38-6.81-2.46-12.55,2.27-18.43Q50.63,126.24,96.7,68.38c1.13-1.42,2.11-3,3.15-4.46-.11-1.07.59-1.29,1.43-1.39,7,.37,11.78,4,14.85,10.14,2.82,5.67,6,11.21,4.75,18-1.32,5-5,8.55-8.09,12.41-9.67,12.06-19.21,24.22-29,36.17C79.83,144,79,149,81.61,154.51c4.85,10.39,10.29,20.49,15,30.94,1.77,3.39,3,7,5,10.33,5.19,8.53,14.12,9.28,20.71,1.8,2-2.24,3.42-4.95,5.93-6.71A1.54,1.54,0,0,1,129.65,191Z"/><path class="cls-1" d="M129.65,191l-.46,0-.45.08c-3.49,2.21-6.42.37-9.18-1.46-7.38-4.91-12.33-18.68-10-27.36,1.08-3.44,3.64-5.91,5.8-8.61,9.84-12.32,19.56-24.74,29.6-36.89,4.39-5.31,5.53-10.55,2.5-16.95-4.83-10.18-9.18-20.59-14.5-30.53-1.4-3.19-3-6.29-4.56-9.4-4.71-9.24-14.64-10.36-21.52-2.45-1.82,2.09-3.05,4.81-6,5.75l-1,.79c-17.16,0-34.31-.27-51.47-.07C40.24,64,35,60.79,31.6,53.25,26.74,42.32,21.24,31.68,16.1,20.87,10.56,9.23,16.35,0,29.17,0,83.31,0,137.45.06,191.59-.09c7.47,0,12.16,3,15.26,9.64,6.67,14.31,13.46,28.58,20.53,42.7,3.49,7,2.77,12.76-2.11,18.84q-46.17,57.42-92.05,115.09C132,187.73,130.84,189.37,129.65,191Z"/><path class="cls-3" d="M133.94,68.87c5.71,9.89,9.92,20.5,14.85,30.76,3.27,6.81,1.79,12.24-2.81,17.8-11.4,13.81-22.5,27.87-33.69,41.85a18.83,18.83,0,0,0-1.49,2.59c-2.08,3.37-4.07,6.84-6.89,9.63-4.13,4.09-5.7,9.51-8.07,14.53-5.39-11-10.92-22-16.09-33.17-2.23-4.81-.92-9.46,2.35-13.53q17-21.21,34.08-42.41a65.94,65.94,0,0,0,3.75-5.8C125,84,131.26,77.55,133.94,68.87Z"/><path class="cls-4" d="M133.94,68.87c-.71,9.92-7.44,16-14,22.25.89-7.73-2.8-14.1-6.33-20.43-2.71-4.85-7.66-6.39-12.7-7.57C103,60.42,105,57.51,107.34,55a13.16,13.16,0,0,1,21.39,2.67C130.72,61.27,132.22,65.13,133.94,68.87Z"/><path class="cls-5" d="M95.83,186a18.34,18.34,0,0,1,5-12.55c3.43-3.76,5.87-8.38,9.93-11.61-3.29,10.39,2.17,18.14,8.08,25.53,2.31,2.89,6,3.93,9.86,3.62-2.18,2.91-4.13,6-6.58,8.68a13,13,0,0,1-21.1-2.44C99,193.71,97.56,189.79,95.83,186Z"/></svg>